<svg xmlns="http://www.w3.org/2000/svg" viewBox="0 0 512 512" width="512" height="512">
    <defs>
        <linearGradient id="gradient1" x1="0%" y1="50%" x2="100%" y2="50%">
            <stop offset="0%" style="stop-color:#156e38;stop-opacity:1" />
            <stop offset="100%" style="stop-color:#5a3687;stop-opacity:1" />
        </linearGradient>

        <linearGradient id="gradient2" x1="0%" y1="50%" x2="100%" y2="50%">
            <stop offset="0%" style="stop-color:#189f46;stop-opacity:1" />
            <stop offset="100%" style="stop-color:#8040a0;stop-opacity:1" />
        </linearGradient>

        <linearGradient id="gradient3" x1="0%" y1="50%" x2="100%" y2="50%">
            <stop offset="0%" style="stop-color:#1db954;stop-opacity:1" />
            <stop offset="100%" style="stop-color:#d954c4;stop-opacity:1" />
        </linearGradient>
    </defs>

    <g fill="none" stroke="url(#gradient3)" stroke-linecap="round" opacity="0.8" stroke-width="8">
        <circle cx="256" cy="256" r="200" />
        <ellipse cx="256" cy="256" rx="100" ry="200" />
        <ellipse cx="256" cy="256" rx="40" ry="200" />
        <path d="M256 56 L256 456" />
    </g>

    <g>
        <g fill="none" stroke="url(#gradient1)" stroke-linecap="round" opacity="0.5" stroke-width="8">
            <path d="M70 220 Q 120 160, 170 220 T 270 220 T 370 220 T 442 220" />
        </g>

        <g fill="none" stroke="url(#gradient2)" stroke-linecap="round" opacity="0.7" stroke-width="10">
            <path d="M70 238 Q 120 178, 170 238 T 270 238 T 370 238 T 442 238" />
        </g>

        <g fill="none" stroke="url(#gradient3)" stroke-linecap="round" opacity="0.9" stroke-width="12">
            <path d="M70 256 Q 120 196, 170 256 T 270 256 T 370 256 T 442 256" />
        </g>
    </g>
</svg>